<svg xmlns="http://www.w3.org/2000/svg" version="1.1" xmlns:xlink="http://www.w3.org/1999/xlink" xmlns:svgjs="http://svgjs.dev/svgjs" width="1000" height="1000" viewBox="0 0 1000 1000"><rect width="1000" height="1000" fill="#ffffff"></rect><g transform="matrix(0.7,0,0,0.7,149.57575757575756,252.30255000000002)"><svg viewBox="0 0 396 280" data-background-color="#ffffff" preserveAspectRatio="xMidYMid meet" height="707" width="1000" xmlns="http://www.w3.org/2000/svg" xmlns:xlink="http://www.w3.org/1999/xlink"><g id="tight-bounds" transform="matrix(1,0,0,1,0.2400000000000091,0.13999999999998636)"><svg viewBox="0 0 395.52 279.72" height="279.72" width="395.52"><g><svg viewBox="0 0 395.52 279.72" height="279.72" width="395.52"><g><svg viewBox="0 0 395.52 279.72" height="279.72" width="395.52"><g><svg viewBox="0 0 395.52 279.72" height="279.72" width="395.52"><g><svg viewBox="0 0 395.52 279.72" height="279.72" width="395.52"><g transform="matrix(1,0,0,1,154.11198364549844,73.92936372216631)"><svg viewBox="0 0 87.29603270900311 131.8612725556674" height="131.8612725556674" width="87.29603270900311"><g><svg xmlns="http://www.w3.org/2000/svg" xmlns:xlink="http://www.w3.org/1999/xlink" version="1.1" x="0" y="0" viewBox="24.761856079101562 5 59.5826416015625 90" enable-background="new 0 0 100 100" xml:space="preserve" height="131.8612725556674" width="87.29603270900311" class="icon-o-0" data-fill-palette-color="accent" id="o-0"><g fill="#5e1914" data-fill-palette-color="accent"><path d="M73.76 35.603C86.875 48 91.5 66.25 65.633 82.379c3.64-4.928 5.654-9.794 6.096-14.669 0.951-10.516-5.606-19.072-12.835-26.752C48.298 29.7 47.51 18.84 56.413 6.782 54.578 22.641 64.6 26.944 73.76 35.603zM45.288 93.716c6.184-13.053 7.276-20.302-8.197-34.939-4.204-3.977-7.451-8.029-9.71-12.086-2.881 6.435-5.164 20.081 3.244 27.935C36.312 79.938 44.125 83.125 45.288 93.716zM56.709 43.014C48.183 33.954 41.999 21.253 54 5 21.497 17.692 19.625 38.125 39.151 56.597 55.603 72.158 54.75 80.75 48 95 79.875 71.5 68.709 55.764 56.709 43.014z" fill="#5e1914" data-fill-palette-color="accent"></path></g><g display="none" fill="#5e1914" data-fill-palette-color="accent"><path display="inline" d="M54 5C16.75 17.5 14.875 56.5 26.75 70.762c10.558 12.68 15.407 7.949 19.675 20.824" fill="#5e1914" data-fill-palette-color="accent"></path><line display="inline" x1="56.988" y1="5.261" x2="45.528" y2="136.262" fill="#5e1914" data-fill-palette-color="accent"></line><line display="inline" x1="54.131" y1="3.502" x2="42.67" y2="134.502" fill="#5e1914" data-fill-palette-color="accent"></line><path display="inline" d="M42.875 76" fill="#5e1914" data-fill-palette-color="accent"></path></g></svg></g></svg></g><path d="M84.93 103.179L81.36 112.78 80.822 112.58 80.502 109.27 62.317 102.507 59.902 104.8 59.374 104.604 62.944 95.003 63.472 95.199 63.867 98.34 71.692 101.25 75.444 91.16 67.62 88.25 65.268 90.37 64.74 90.173 68.296 80.611 68.825 80.807 69.18 84.054 87.364 90.817 89.745 88.587 90.283 88.787 86.726 98.35 86.189 98.15 85.804 95.012 77.278 91.842 73.525 101.932 82.051 105.103 84.393 102.979ZM95.198 81.707L90.977 88.114 90.498 87.798 90.7 85.294 77.513 65.578 78.882 63.499 102.089 67.896 104.48 66.576 104.959 66.892 99.329 75.437 98.85 75.122 99.511 71.865 92.958 70.565 88.264 77.691 92.061 83.173 94.719 81.391ZM81.889 68.375L87.081 75.93 90.874 70.173ZM112.965 59.138L105.826 66.283 105.421 65.877 106.506 62.733 92.781 49.021 89.63 50.102 89.232 49.704 96.971 41.957C98.733 40.194 100.485 39.169 102.228 38.884 103.967 38.603 105.471 39.097 106.742 40.366V40.366C107.684 41.308 108.189 42.44 108.257 43.763 108.325 45.086 108.043 46.45 107.411 47.856V47.856L119.168 50.219 121.877 49.406 122.283 49.812 117.584 54.515 105.175 51.601 103.416 53.362 109.626 59.567 112.559 58.732ZM97.154 44.543V44.543L95.872 45.826 102.133 52.081 103.567 50.646C104.604 49.607 105.149 48.472 105.202 47.241 105.264 46.01 104.824 44.923 103.882 43.982V43.982C102.911 43.012 101.834 42.573 100.651 42.665 99.473 42.762 98.307 43.388 97.154 44.543ZM129.268 45.91L122.253 50.322 121.947 49.836 123.67 47.035 113.974 30.214 110.576 30.621 110.276 30.144 116.953 25.944 132.716 36.771 129.742 17.901 136.15 13.871 136.45 14.347 134.536 16.979 145.513 33.297 148.489 33.144 148.795 33.629 140.575 38.799 140.269 38.313 141.867 35.639 132.439 21.323 135.734 42.049 134.173 43.031 117.011 31.232 125.652 45.837 128.962 45.425ZM162.202 29.889V29.889C160.562 30.431 158.949 30.643 157.365 30.527 155.775 30.419 154.296 30.023 152.927 29.339 151.551 28.658 150.347 27.714 149.316 26.509 148.278 25.305 147.484 23.87 146.933 22.204V22.204C146.383 20.537 146.166 18.912 146.282 17.327 146.392 15.744 146.796 14.27 147.495 12.902 148.188 11.537 149.139 10.335 150.349 9.295 151.554 8.263 152.978 7.477 154.618 6.935V6.935C156.284 6.384 157.909 6.164 159.492 6.274 161.076 6.39 162.557 6.789 163.933 7.471 165.302 8.155 166.506 9.098 167.544 10.302 168.575 11.507 169.366 12.943 169.916 14.61V14.61C170.467 16.276 170.687 17.901 170.577 19.483 170.461 21.068 170.056 22.543 169.364 23.908 168.665 25.276 167.713 26.475 166.507 27.506 165.304 28.544 163.869 29.338 162.202 29.889ZM162.246 27.965V27.965C163.504 27.549 164.491 26.824 165.206 25.789 165.928 24.752 166.342 23.49 166.447 22.002 166.555 20.521 166.315 18.892 165.728 17.116V17.116C165.006 14.931 164.047 13.14 162.853 11.744 161.656 10.341 160.34 9.385 158.905 8.873 157.477 8.36 156.066 8.334 154.671 8.794V8.794C153.433 9.203 152.441 9.923 151.695 10.953 150.95 11.984 150.514 13.243 150.387 14.73 150.255 16.226 150.483 17.863 151.07 19.64V19.64C151.79 21.818 152.755 23.607 153.965 25.005 155.175 26.403 156.509 27.361 157.968 27.879 159.42 28.399 160.846 28.427 162.246 27.965ZM184.847 24.871L175.578 25.759 175.523 25.188 178.322 23.459 176.476 4.176 173.437 2.965 173.384 2.404 179.461 1.822 194.669 16.646 193.311 2.462 189.355 1.441 189.301 0.88 198.498 0 198.552 0.561 195.792 2.255 197.854 23.801 196.009 23.978 179.323 7.794 180.803 23.262 184.792 24.3ZM219.229 25.864L208.474 24.523 208.545 23.953 211.897 22.906 213.001 14.052 206.565 2.504 204.426 0.946 204.496 0.387 214.447 1.628 214.377 2.188 211.576 3.129 211.558 3.271 216.708 12.471 223.361 4.815 223.379 4.673 220.862 2.996 220.932 2.437 228.728 3.41 228.659 3.969 226.256 4.856 217.447 14.576 216.339 23.46 219.3 25.295ZM244.215 33.476L234.786 29.473 235.01 28.945 238.332 28.775 245.915 10.917 243.734 8.4 243.954 7.881 253.383 11.885 253.163 12.404 250.007 12.655 246.744 20.339 256.653 24.547 259.916 16.863 257.905 14.417 258.125 13.899 267.516 17.886 267.296 18.405 264.036 18.612 256.454 36.47 258.572 38.95 258.348 39.478 248.957 35.49 249.181 34.962 252.333 34.72 255.889 26.348 245.979 22.14 242.424 30.513 244.439 32.948ZM269.577 48.249V48.249C268.174 47.241 267.054 46.061 266.217 44.711 265.37 43.362 264.82 41.932 264.568 40.422 264.311 38.909 264.367 37.38 264.736 35.837 265.099 34.29 265.793 32.804 266.818 31.379V31.379C267.842 29.954 269.029 28.823 270.38 27.986 271.725 27.144 273.156 26.604 274.673 26.366 276.184 26.124 277.716 26.186 279.269 26.554 280.812 26.923 282.284 27.611 283.687 28.62V28.62C285.112 29.644 286.246 30.829 287.087 32.174 287.924 33.524 288.472 34.957 288.729 36.47 288.981 37.98 288.925 39.509 288.562 41.056 288.193 42.598 287.496 44.082 286.472 45.508V45.508C285.447 46.933 284.263 48.066 282.918 48.907 281.567 49.745 280.136 50.284 278.625 50.527 277.108 50.765 275.578 50.7 274.035 50.331 272.488 49.967 271.002 49.273 269.577 48.249ZM271.159 47.153V47.153C272.235 47.927 273.402 48.299 274.659 48.269 275.922 48.243 277.186 47.836 278.452 47.047 279.713 46.263 280.89 45.112 281.982 43.592V43.592C283.325 41.724 284.211 39.896 284.637 38.108 285.068 36.316 285.069 34.689 284.639 33.228 284.215 31.77 283.407 30.613 282.214 29.756V29.756C281.155 28.995 279.99 28.616 278.718 28.618 277.446 28.621 276.172 29.008 274.893 29.779 273.606 30.553 272.416 31.699 271.324 33.218V33.218C269.985 35.081 269.105 36.913 268.685 38.714 268.265 40.515 268.275 42.157 268.713 43.642 269.146 45.122 269.962 46.293 271.159 47.153ZM289.129 66.663V66.663C287.842 65.203 286.953 63.693 286.461 62.133 285.979 60.574 286.007 58.988 286.544 57.377 287.081 55.766 288.257 54.161 290.07 52.563V52.563L298.893 44.789 298.015 41.576 298.438 41.204 305.325 49.02 304.902 49.393 301.853 48.148 293.191 55.78C291.731 57.066 290.774 58.319 290.319 59.539 289.869 60.764 289.801 61.926 290.113 63.024 290.431 64.118 291.012 65.145 291.857 66.103V66.103C292.547 66.887 293.35 67.467 294.265 67.844 295.185 68.217 296.184 68.292 297.263 68.07 298.342 67.838 299.476 67.199 300.664 66.151V66.151L310.317 57.646 309.107 54.165 309.53 53.793 315.381 60.433 314.958 60.806 311.94 59.534 303.086 67.335C301.272 68.933 299.542 69.908 297.894 70.258 296.241 70.604 294.679 70.447 293.206 69.788 291.738 69.124 290.379 68.083 289.129 66.663ZM302.288 84.737V84.737C301.52 83.431 300.979 82.215 300.667 81.092 300.349 79.972 300.152 78.788 300.076 77.542V77.542L305.015 74.22 305.342 74.776 302.92 78.721C302.623 80.599 302.883 82.233 303.7 83.622V83.622C304.372 84.764 305.191 85.517 306.159 85.883 307.133 86.245 308.141 86.12 309.182 85.507V85.507C309.959 85.05 310.481 84.502 310.746 83.862 311.021 83.225 311.139 82.423 311.101 81.455 311.068 80.484 310.967 79.248 310.797 77.747V77.747C310.654 75.914 310.757 74.372 311.106 73.121 311.456 71.869 312.316 70.84 313.688 70.033V70.033C314.465 69.576 315.323 69.333 316.264 69.302 317.211 69.268 318.146 69.411 319.071 69.731 320.002 70.047 320.866 70.513 321.664 71.129 322.468 71.741 323.123 72.477 323.629 73.336V73.336C324.231 74.361 324.676 75.386 324.964 76.414 325.251 77.441 325.419 78.487 325.467 79.552V79.552L320.749 82.744 320.442 82.223 322.714 78.367C322.815 77.515 322.827 76.767 322.749 76.124 322.671 75.48 322.44 74.832 322.056 74.178V74.178C321.551 73.319 320.848 72.778 319.948 72.554 319.048 72.331 318.16 72.477 317.283 72.993V72.993C316.364 73.533 315.803 74.276 315.598 75.22 315.399 76.161 315.382 77.546 315.546 79.375V79.375C315.706 80.952 315.747 82.303 315.671 83.425 315.585 84.545 315.309 85.504 314.843 86.301 314.377 87.098 313.632 87.798 312.608 88.4V88.4C311.631 88.975 310.645 89.273 309.652 89.295 308.659 89.317 307.695 89.127 306.762 88.725 305.828 88.324 304.973 87.773 304.197 87.073 303.43 86.375 302.794 85.597 302.288 84.737ZM314.591 112.278L307.596 93.985 308.131 93.78 310.558 96.054 328.679 89.124 328.979 85.807 329.505 85.606 336.146 102.971 330.406 105.167 330.204 104.64 333.239 100.848 330.334 93.251 322.47 96.259 324.511 101.597 328.022 102.317 328.223 102.843 320.818 105.675 320.616 105.149 322.684 102.296 320.642 96.957 312.079 100.232 315.303 108.661 320.867 109.275 321.069 109.801ZM70.803 186.943L70.463 185.977 81.405 177.854 81.63 176.059 81.949 175.946 84.001 181.772 83.683 181.884 82.327 180.472 75.042 185.721 75.07 185.798 85.606 186.018 85.96 187.023 77.894 193.817 77.932 193.923 86.898 193.448 87.062 191.478 87.381 191.366 88.967 195.868 88.648 195.981 87.466 194.876 73.771 195.368 73.423 194.382 81.451 187.482 81.41 187.366ZM79.48 207.813L76.623 202.383 76.922 202.225 78.537 203.402 88.826 197.989 88.771 195.992 89.07 195.835 91.927 201.265 91.628 201.423 90.066 200.346 85.642 202.673 88.646 208.385 93.07 206.057 93.068 204.161 93.367 204.003 96.214 209.415 95.915 209.573 94.32 208.433 84.03 213.845 84.066 215.806 83.767 215.963 80.92 210.551 81.219 210.393 82.781 211.47 87.604 208.933 84.599 203.222 79.777 205.759 79.779 207.656ZM92.049 227.938L85.358 218.293 85.635 218.1 87.381 219.071 96.934 212.444 96.636 210.469 96.914 210.276 103.266 219.434 100.236 221.535 100.043 221.258 101.273 218.609 98.494 214.603 94.344 217.482 96.3 220.301 98.436 220.216 98.628 220.494 94.723 223.203 94.53 222.925 95.333 220.973 93.377 218.153 88.857 221.288 91.94 225.732 95.273 225.29 95.466 225.568ZM98.07 234.82L94.052 230.292 94.305 230.067 96.154 230.824 104.851 223.108 104.32 221.183 104.573 220.958 108.931 225.87C109.919 226.984 110.466 228.069 110.572 229.125 110.683 230.176 110.335 231.06 109.528 231.776V231.776C108.93 232.306 108.235 232.567 107.442 232.558 106.649 232.55 105.843 232.33 105.022 231.898V231.898L103.183 238.856 103.571 240.512 103.318 240.736 100.673 237.755 102.86 230.434 101.868 229.315 97.937 232.803 98.323 234.596ZM107.377 225.879V225.879L106.657 225.067 102.687 228.588 103.496 229.5C104.076 230.154 104.734 230.524 105.469 230.612 106.204 230.69 106.871 230.464 107.469 229.933V229.933C108.082 229.389 108.383 228.762 108.372 228.05 108.362 227.338 108.03 226.615 107.377 225.879ZM113.12 249.59L104.435 241.692 104.663 241.442 106.582 241.997 114.404 233.395 113.67 231.537 113.897 231.287 122.143 238.785 119.662 241.513 119.412 241.286 120.016 238.429 116.408 235.149 113.011 238.885 115.55 241.194 117.611 240.632 117.862 240.859 114.664 244.376 114.414 244.148 114.757 242.065 112.218 239.757 108.518 243.826 112.519 247.465 115.668 246.286 115.918 246.513ZM124.275 257.373L120.062 254.74 120.241 254.454 122.211 254.646 128.746 245.02 127.641 243.291 127.82 243.004 131.833 245.512 130.1 256.847 139.512 250.312 143.36 252.717 143.181 253.003 141.258 252.659 135.327 262.844 136.18 264.416 136.001 264.703 131.067 261.619 131.247 261.332 133.104 261.491 138.367 252.664 128.051 259.854 127.104 259.263 128.993 246.926 123.367 255.405 124.454 257.087ZM145.627 269.165V269.165C144.563 268.702 143.699 268.111 143.037 267.391 142.377 266.664 141.988 265.795 141.87 264.783 141.751 263.771 141.981 262.601 142.558 261.274V261.274L145.369 254.811 144.076 253.288 144.211 252.978 149.941 255.47 149.806 255.78 147.83 255.881 145.068 262.231C144.605 263.296 144.405 264.218 144.468 264.997 144.532 265.777 144.789 266.425 145.242 266.942 145.691 267.451 146.27 267.859 146.977 268.166V268.166C147.547 268.414 148.128 268.525 148.72 268.5 149.315 268.468 149.877 268.254 150.406 267.859 150.936 267.464 151.391 266.828 151.772 265.951V265.951L154.849 258.878 153.301 257.3 153.436 256.99 158.301 259.106 158.167 259.416 156.198 259.498 153.379 265.98C152.802 267.307 152.112 268.277 151.31 268.889 150.502 269.498 149.613 269.811 148.644 269.83 147.679 269.841 146.673 269.62 145.627 269.165ZM159.7 274.371V274.371C158.825 274.105 158.093 273.789 157.504 273.424 156.909 273.057 156.342 272.613 155.801 272.091V272.091L156.634 268.618 157.007 268.732 157.534 271.463C158.16 272.41 158.936 273.025 159.863 273.307V273.307C160.621 273.538 161.289 273.538 161.866 273.307 162.445 273.07 162.84 272.605 163.051 271.912V271.912C163.209 271.396 163.215 270.942 163.071 270.548 162.933 270.156 162.66 269.755 162.249 269.344 161.841 268.927 161.299 268.423 160.622 267.831V267.831C159.808 267.083 159.225 266.359 158.874 265.66 158.522 264.967 158.484 264.167 158.76 263.259V263.259C158.918 262.743 159.196 262.285 159.596 261.886 160.003 261.489 160.478 261.173 161.02 260.938 161.556 260.702 162.125 260.557 162.726 260.505 163.33 260.446 163.919 260.504 164.494 260.68V260.68C165.173 260.887 165.783 261.158 166.323 261.494 166.87 261.832 167.37 262.227 167.825 262.68V262.68L167.036 266.006 166.683 265.898 166.133 263.278C165.826 262.856 165.525 262.518 165.231 262.265 164.938 262.011 164.575 261.818 164.144 261.687V261.687C163.569 261.512 163.038 261.557 162.55 261.822 162.06 262.094 161.727 262.521 161.549 263.102V263.102C161.362 263.716 161.414 264.271 161.706 264.767 162.004 265.265 162.558 265.883 163.368 266.622V266.622C164.082 267.254 164.648 267.834 165.066 268.361 165.483 268.888 165.752 269.423 165.872 269.966 165.985 270.508 165.938 271.118 165.731 271.798V271.798C165.532 272.451 165.22 272.984 164.794 273.397 164.362 273.808 163.858 274.114 163.282 274.317 162.713 274.522 162.114 274.625 161.485 274.626 160.863 274.63 160.268 274.544 159.7 274.371ZM173.243 277.544L167.161 276.202 167.234 275.871 169.154 275.393 171.659 264.04 170.119 262.798 170.192 262.468 176.273 263.81 176.2 264.14 174.28 264.618 171.775 275.971 173.315 277.214ZM183.26 279.085V279.085C181.797 278.898 180.565 278.439 179.564 277.705 178.555 276.978 177.822 276.059 177.364 274.947 176.907 273.836 176.762 272.626 176.928 271.319V271.319C177.059 270.289 177.386 269.346 177.908 268.49 178.43 267.634 179.087 266.906 179.88 266.304 180.672 265.703 181.544 265.26 182.496 264.975 183.454 264.698 184.431 264.622 185.427 264.749V264.749C186.145 264.841 186.748 264.966 187.238 265.124 187.728 265.276 188.156 265.451 188.523 265.65 188.897 265.849 189.268 266.071 189.636 266.318V266.318L189.329 270.192 188.953 270.144 187.644 266.962C187.24 266.615 186.871 266.351 186.536 266.171 186.201 265.991 185.8 265.871 185.333 265.811V265.811C184.418 265.695 183.563 265.844 182.766 266.259 181.97 266.674 181.3 267.311 180.757 268.171 180.221 269.032 179.876 270.063 179.723 271.262V271.262C179.56 272.549 179.623 273.675 179.913 274.642 180.209 275.609 180.675 276.384 181.31 276.967 181.945 277.551 182.692 277.897 183.553 278.007V278.007C184.183 278.087 184.739 278.072 185.221 277.961 185.696 277.849 186.149 277.697 186.58 277.504V277.504L188.537 275.11 188.893 275.155 188.173 278.616C187.543 278.866 186.835 279.041 186.052 279.141 185.275 279.241 184.344 279.223 183.26 279.085ZM204.62 279.714V279.714C203.146 279.763 201.856 279.505 200.751 278.94 199.64 278.382 198.77 277.591 198.141 276.566 197.513 275.542 197.177 274.371 197.134 273.053V273.053C197.1 272.016 197.272 271.033 197.651 270.105 198.031 269.177 198.564 268.353 199.251 267.634 199.938 266.914 200.728 266.338 201.623 265.905 202.524 265.479 203.477 265.25 204.48 265.217V265.217C205.203 265.193 205.819 265.22 206.327 265.299 206.835 265.371 207.286 265.476 207.68 265.613 208.081 265.75 208.483 265.911 208.885 266.096V266.096L209.198 269.97 208.819 269.983 207.021 267.049C206.567 266.77 206.161 266.569 205.802 266.444 205.442 266.319 205.027 266.264 204.556 266.28V266.28C203.635 266.31 202.814 266.594 202.094 267.13 201.373 267.666 200.813 268.402 200.414 269.338 200.021 270.273 199.845 271.345 199.885 272.553V272.553C199.927 273.85 200.169 274.952 200.609 275.86 201.055 276.767 201.638 277.459 202.358 277.934 203.077 278.409 203.87 278.632 204.737 278.603V278.603C205.372 278.582 205.919 278.479 206.377 278.293 206.829 278.107 207.252 277.885 207.646 277.626V277.626L209.198 274.951 209.556 274.939 209.396 278.47C208.813 278.817 208.143 279.103 207.385 279.326 206.634 279.549 205.712 279.678 204.62 279.714ZM220.388 277.907V277.907C219.363 278.073 218.387 278.046 217.46 277.829 216.532 277.612 215.694 277.235 214.943 276.699 214.199 276.162 213.579 275.487 213.081 274.675 212.584 273.863 212.252 272.941 212.086 271.909V271.909C211.919 270.871 211.944 269.888 212.161 268.961 212.378 268.034 212.755 267.198 213.293 266.455 213.837 265.71 214.515 265.089 215.327 264.591 216.139 264.094 217.058 263.763 218.082 263.598V263.598C219.121 263.43 220.103 263.455 221.031 263.672 221.958 263.89 222.797 264.266 223.547 264.803 224.291 265.34 224.911 266.015 225.409 266.827 225.906 267.639 226.239 268.564 226.406 269.602V269.602C226.572 270.634 226.547 271.613 226.329 272.541 226.112 273.468 225.735 274.303 225.198 275.047 224.654 275.792 223.976 276.413 223.163 276.91 222.351 277.408 221.426 277.74 220.388 277.907ZM220.589 276.775V276.775C221.378 276.648 222.033 276.311 222.553 275.764 223.082 275.222 223.449 274.516 223.654 273.646 223.86 272.776 223.874 271.788 223.696 270.682V270.682C223.476 269.32 223.076 268.168 222.495 267.224 221.922 266.285 221.236 265.593 220.438 265.148 219.641 264.709 218.808 264.56 217.938 264.7V264.7C217.163 264.825 216.508 265.159 215.973 265.701 215.43 266.238 215.049 266.943 214.83 267.815 214.61 268.688 214.59 269.677 214.768 270.782V270.782C214.987 272.144 215.391 273.296 215.979 274.239 216.559 275.177 217.254 275.867 218.066 276.31 218.878 276.76 219.72 276.915 220.589 276.775ZM235.114 274.199L230.38 275.706 230.278 275.384 231.699 274.007 228.594 262.794 226.56 262.517 226.457 262.195 230.967 260.76 238.484 269.419 239.596 258.014 243.92 256.638 244.023 256.961 242.515 258.203 246.439 269.317 248.189 269.684 248.292 270.006 242.748 271.77 242.645 271.448 243.969 270.135 240.648 260.41 239.45 272.927 238.386 273.266 230.206 263.84 233.026 273.617 235.012 273.877ZM261.423 263.794L250.816 268.824 250.671 268.518 251.913 266.954 246.932 256.449 244.935 256.422 244.79 256.116 254.86 251.341 256.44 254.673 256.134 254.818 253.722 253.173 249.316 255.262 251.48 259.825 254.581 258.355 254.845 256.234 255.15 256.089 257.187 260.384 256.881 260.529 255.085 259.419 251.985 260.889 254.342 265.859 259.229 263.542 259.335 260.181 259.641 260.036ZM268.065 260.055V260.055C267.282 260.529 266.559 260.864 265.894 261.059 265.224 261.257 264.514 261.384 263.765 261.439V261.439L261.733 258.502 262.066 258.3 264.453 259.728C265.576 259.894 266.552 259.726 267.381 259.223V259.223C268.058 258.813 268.504 258.315 268.716 257.731 268.926 257.141 268.843 256.537 268.468 255.918V255.918C268.188 255.456 267.853 255.148 267.464 254.993 267.08 254.834 266.598 254.771 266.019 254.803 265.436 254.829 264.698 254.896 263.806 255.006V255.006C262.706 255.114 261.778 255.065 261.023 254.86 260.271 254.661 259.65 254.156 259.157 253.344V253.344C258.878 252.882 258.723 252.37 258.692 251.805 258.667 251.237 258.748 250.673 258.936 250.112 259.117 249.555 259.389 249.035 259.751 248.552 260.109 248.063 260.545 247.663 261.059 247.352V247.352C261.667 246.984 262.276 246.71 262.886 246.532 263.503 246.35 264.131 246.24 264.771 246.204V246.204L266.724 249.009 266.408 249.2 264.089 247.863C263.569 247.811 263.117 247.809 262.732 247.859 262.347 247.909 261.962 248.05 261.577 248.284V248.284C261.063 248.596 260.742 249.022 260.614 249.562 260.49 250.108 260.586 250.641 260.901 251.161V251.161C261.234 251.71 261.682 252.041 262.246 252.155 262.815 252.264 263.646 252.264 264.737 252.154V252.154C265.684 252.043 266.493 252.008 267.164 252.048 267.835 252.088 268.414 252.245 268.898 252.518 269.378 252.795 269.801 253.237 270.169 253.844V253.844C270.523 254.428 270.712 255.016 270.736 255.609 270.754 256.205 270.646 256.785 270.414 257.349 270.187 257.91 269.864 258.425 269.446 258.894 269.033 259.36 268.573 259.747 268.065 260.055ZM286.425 246.176L280.954 250.7 280.739 250.44 281.89 248.344 274.448 239.346 271.969 241.396 272.865 245.002 272.604 245.217 269.725 241.736 279.742 233.452 282.621 236.933 282.361 237.148 278.995 235.585 276.516 237.635 283.958 246.634 286.209 245.916ZM295.717 237.278V237.278C295.002 238.031 294.21 238.602 293.341 238.991 292.472 239.381 291.576 239.59 290.654 239.618 289.737 239.642 288.835 239.481 287.947 239.137 287.059 238.793 286.236 238.261 285.479 237.541V237.541C284.716 236.817 284.14 236.02 283.751 235.151 283.361 234.282 283.155 233.389 283.131 232.472 283.112 231.55 283.275 230.645 283.619 229.757 283.964 228.869 284.493 228.048 285.208 227.296V227.296C285.933 226.533 286.729 225.957 287.598 225.568 288.468 225.178 289.363 224.97 290.285 224.941 291.202 224.917 292.105 225.078 292.993 225.422 293.881 225.767 294.706 226.301 295.468 227.025V227.025C296.226 227.745 296.799 228.539 297.189 229.408 297.578 230.277 297.785 231.17 297.808 232.088 297.827 233.01 297.664 233.915 297.32 234.803 296.976 235.691 296.441 236.516 295.717 237.278ZM295.191 236.256V236.256C295.741 235.677 296.057 235.012 296.139 234.261 296.231 233.51 296.095 232.726 295.731 231.909 295.367 231.092 294.779 230.298 293.967 229.527V229.527C292.967 228.577 291.95 227.903 290.916 227.504 289.891 227.106 288.927 226.971 288.022 227.1 287.122 227.235 286.369 227.621 285.762 228.26V228.26C285.221 228.829 284.902 229.492 284.806 230.248 284.7 231.004 284.824 231.795 285.178 232.622 285.533 233.449 286.116 234.248 286.928 235.019V235.019C287.928 235.969 288.948 236.641 289.987 237.034 291.016 237.428 291.988 237.555 292.902 237.416 293.821 237.281 294.584 236.895 295.191 236.256ZM312.052 215.82L305.669 225.167 305.389 224.977 305.673 223 296.072 216.442 294.334 217.426 294.055 217.235 297.694 211.906 297.973 212.097 297.574 214.243 307.217 220.829 309.979 216.786 307.725 213.274 307.916 212.995ZM316.513 207.903L313.456 213.33 313.162 213.164 313.264 211.187 303.134 205.482 301.497 206.593 301.202 206.428 304.259 201.001 304.553 201.167 304.451 203.143 314.581 208.849 316.218 207.737ZM320.39 199.5L317.673 205.455 317.366 205.314 317.308 203.318 306.731 198.492 305.186 199.757 304.878 199.617 309.415 189.673 312.77 191.204 312.629 191.511 309.754 191.742 307.79 196.047 312.431 198.165 313.766 195.239 312.593 193.442 312.737 193.125 316.978 195.06 316.833 195.377 314.754 195.689 313.419 198.616 318.414 200.895 320.083 199.359ZM326.871 181.655L323.158 192.792 322.837 192.685 322.568 190.706 311.539 187.028 310.136 188.45 309.816 188.343 313.341 177.771 316.839 178.937 316.732 179.258 313.875 179.86 312.333 184.486 317.123 186.083 318.209 182.828 316.861 181.169 316.968 180.848 321.477 182.352 321.37 182.672 319.326 183.2 318.241 186.456 323.459 188.195 325.17 183.064 322.818 180.661 322.925 180.34ZM59.839 145.223C59.839 140.199 63.912 136.127 68.936 136.127 73.96 136.127 78.033 140.199 78.033 145.223 78.033 150.248 73.96 154.32 68.936 154.32 63.912 154.32 59.839 150.248 59.839 145.223ZM317.72 145.223C317.72 140.199 321.792 136.127 326.816 136.127 331.84 136.127 335.913 140.199 335.913 145.223 335.913 150.248 331.84 154.32 326.816 154.32 321.792 154.32 317.72 150.248 317.72 145.223Z" fill="#5e1914" data-fill-palette-color="primary"></path></svg></g></svg></g></svg></g><g></g></svg></g><defs></defs></svg><rect width="395.52" height="279.72" fill="none" stroke="none" visibility="hidden"></rect></g></svg></g></svg>